<svg width="100" height="100" viewBox="0 0 100 100" fill="none" xmlns="http://www.w3.org/2000/svg">
<rect width="100" height="100" fill="#262626"/>
<path d="M50.176 61.32C48.9387 61.32 47.7973 61.1707 46.752 60.872C45.728 60.552 44.8427 60.104 44.096 59.528C43.3707 58.9307 42.8053 58.216 42.4 57.384C41.9947 56.552 41.792 55.6133 41.792 54.568C41.792 53.2667 42.1013 52.1467 42.72 51.208C43.36 50.2693 44.2027 49.5547 45.248 49.064C44.416 48.5733 43.7653 47.9333 43.296 47.144C42.8267 46.3547 42.592 45.416 42.592 44.328C42.592 43.048 42.9013 41.9707 43.52 41.096C44.16 40.2 45.0453 39.5067 46.176 39.016C47.328 38.5253 48.6613 38.28 50.176 38.28C51.6693 38.28 52.9813 38.5253 54.112 39.016C55.264 39.4853 56.1493 40.168 56.768 41.064C57.408 41.96 57.728 43.0373 57.728 44.296C57.728 45.384 57.4933 46.3333 57.024 47.144C56.5547 47.9333 55.9147 48.5733 55.104 49.064C56.1493 49.5547 56.9813 50.2693 57.6 51.208C58.24 52.1467 58.56 53.2667 58.56 54.568C58.56 55.9547 58.208 57.16 57.504 58.184C56.8 59.1867 55.8187 59.9653 54.56 60.52C53.3013 61.0533 51.84 61.32 50.176 61.32ZM50.176 58.76C51.1573 58.76 52.0427 58.5893 52.832 58.248C53.6213 57.9067 54.2507 57.4267 54.72 56.808C55.1893 56.168 55.424 55.4213 55.424 54.568C55.424 53.6933 55.1893 52.9573 54.72 52.36C54.2507 51.7413 53.6213 51.272 52.832 50.952C52.0427 50.6107 51.1573 50.44 50.176 50.44C49.1947 50.44 48.2987 50.6107 47.488 50.952C46.6987 51.272 46.0693 51.7413 45.6 52.36C45.1307 52.9573 44.896 53.6933 44.896 54.568C44.896 55.4213 45.1307 56.168 45.6 56.808C46.0693 57.4267 46.6987 57.9067 47.488 58.248C48.2987 58.5893 49.1947 58.76 50.176 58.76ZM50.176 47.912C50.9867 47.912 51.7333 47.7627 52.416 47.464C53.12 47.1653 53.6747 46.76 54.08 46.248C54.5067 45.736 54.72 45.1173 54.72 44.392C54.72 43.6667 54.5173 43.0373 54.112 42.504C53.728 41.9707 53.184 41.5653 52.48 41.288C51.7973 40.9893 51.0293 40.84 50.176 40.84C49.3227 40.84 48.544 40.9893 47.84 41.288C47.1573 41.5653 46.6133 41.9707 46.208 42.504C45.8027 43.0373 45.6 43.6667 45.6 44.392C45.6 45.1387 45.8027 45.7787 46.208 46.312C46.6133 46.824 47.1573 47.2187 47.84 47.496C48.544 47.7733 49.3227 47.912 50.176 47.912Z" fill="#666666"/>
</svg>
