<svg width="100" height="100" viewBox="0 0 100 100" fill="none" xmlns="http://www.w3.org/2000/svg">
<rect width="100" height="100" fill="#262626"/>
<path d="M52.832 61C52.6187 61 52.4373 60.936 52.288 60.808C52.16 60.6587 52.096 60.4773 52.096 60.264V55.656H41.728C41.5147 55.656 41.3333 55.592 41.184 55.464C41.056 55.3147 40.992 55.1333 40.992 54.92V53.64C40.992 53.5547 41.0133 53.4267 41.056 53.256C41.12 53.064 41.216 52.872 41.344 52.68L50.944 39.144C51.2 38.7813 51.5947 38.6 52.128 38.6H54.432C54.6453 38.6 54.816 38.6747 54.944 38.824C55.0933 38.952 55.168 39.1227 55.168 39.336V52.872H58.048C58.2827 52.872 58.464 52.9467 58.592 53.096C58.7413 53.224 58.816 53.3947 58.816 53.608V54.92C58.816 55.1333 58.7413 55.3147 58.592 55.464C58.464 55.592 58.2933 55.656 58.08 55.656H55.168V60.264C55.168 60.4773 55.0933 60.6587 54.944 60.808C54.816 60.936 54.6453 61 54.432 61H52.832ZM44.416 52.936H52.128V41.96L44.416 52.936Z" fill="#666666"/>
</svg>
