<svg width="100" height="100" viewBox="0 0 100 100" fill="none" xmlns="http://www.w3.org/2000/svg">
<rect width="100" height="100" fill="#262626"/>
<path d="M51.832 61C51.6187 61 51.4373 60.936 51.288 60.808C51.16 60.6587 51.096 60.4773 51.096 60.264V42.344L45.784 46.44C45.6133 46.568 45.432 46.6213 45.24 46.6C45.048 46.5787 44.888 46.4827 44.76 46.312L43.928 45.256C43.8 45.064 43.7467 44.872 43.768 44.68C43.8107 44.488 43.9173 44.328 44.088 44.2L51.064 38.824C51.2133 38.7173 51.352 38.6533 51.48 38.632C51.608 38.6107 51.7467 38.6 51.896 38.6H53.528C53.7413 38.6 53.912 38.6747 54.04 38.824C54.168 38.952 54.232 39.1227 54.232 39.336V60.264C54.232 60.4773 54.168 60.6587 54.04 60.808C53.912 60.936 53.7413 61 53.528 61H51.832Z" fill="#666666"/>
</svg>
