<svg width="100" height="100" viewBox="0 0 100 100" fill="none" xmlns="http://www.w3.org/2000/svg">
<rect width="100" height="100" fill="#262626"/>
<path d="M49.856 61.32C48.0853 61.32 46.5813 60.968 45.344 60.264C44.1067 59.5387 43.1573 58.6 42.496 57.448C41.856 56.2747 41.536 55.0053 41.536 53.64C41.536 53 41.6107 52.392 41.76 51.816C41.9307 51.2187 42.1333 50.664 42.368 50.152C42.624 49.6187 42.8693 49.1493 43.104 48.744C43.36 48.3173 43.584 47.976 43.776 47.72L49.856 39.24C49.9627 39.1333 50.0907 39.0053 50.24 38.856C50.3893 38.6853 50.6133 38.6 50.912 38.6H52.608C52.8 38.6 52.9493 38.6747 53.056 38.824C53.184 38.952 53.248 39.112 53.248 39.304C53.248 39.3893 53.2373 39.4747 53.216 39.56C53.1947 39.624 53.1627 39.6773 53.12 39.72L48.448 46.248C48.704 46.1627 48.992 46.1093 49.312 46.088C49.6533 46.0453 49.9733 46.024 50.272 46.024C51.4453 46.0453 52.512 46.2587 53.472 46.664C54.432 47.0693 55.2533 47.624 55.936 48.328C56.64 49.0107 57.1733 49.8107 57.536 50.728C57.8987 51.624 58.08 52.584 58.08 53.608C58.08 54.952 57.76 56.2107 57.12 57.384C56.48 58.5573 55.5413 59.5067 54.304 60.232C53.088 60.9573 51.6053 61.32 49.856 61.32ZM49.824 58.6C50.72 58.6 51.552 58.408 52.32 58.024C53.088 57.64 53.7067 57.0853 54.176 56.36C54.6667 55.6133 54.912 54.7067 54.912 53.64C54.912 52.552 54.6773 51.6453 54.208 50.92C53.7387 50.1733 53.1093 49.6187 52.32 49.256C51.552 48.872 50.72 48.68 49.824 48.68C48.928 48.68 48.096 48.872 47.328 49.256C46.56 49.6187 45.9307 50.1733 45.44 50.92C44.9707 51.6453 44.736 52.552 44.736 53.64C44.736 54.7067 44.9707 55.6133 45.44 56.36C45.9307 57.0853 46.56 57.64 47.328 58.024C48.096 58.408 48.928 58.6 49.824 58.6Z" fill="#666666"/>
</svg>
