<svg width="100" height="100" viewBox="0 0 100 100" fill="none" xmlns="http://www.w3.org/2000/svg">
<rect width="100" height="100" fill="#262626"/>
<path d="M41.832 61C41.6187 61 41.4373 60.936 41.288 60.808C41.16 60.6587 41.096 60.4773 41.096 60.264V42.344L35.784 46.44C35.6133 46.568 35.432 46.6213 35.24 46.6C35.048 46.5787 34.888 46.4827 34.76 46.312L33.928 45.256C33.8 45.064 33.7467 44.872 33.768 44.68C33.8107 44.488 33.9173 44.328 34.088 44.2L41.064 38.824C41.2133 38.7173 41.352 38.6533 41.48 38.632C41.608 38.6107 41.7467 38.6 41.896 38.6H43.528C43.7413 38.6 43.912 38.6747 44.04 38.824C44.168 38.952 44.232 39.1227 44.232 39.336V60.264C44.232 60.4773 44.168 60.6587 44.04 60.808C43.912 60.936 43.7413 61 43.528 61H41.832ZM56.8315 61.32C55.3595 61.32 54.1115 61.096 53.0875 60.648C52.0848 60.1787 51.2635 59.5387 50.6235 58.728C49.9835 57.9173 49.5142 56.9893 49.2155 55.944C48.9382 54.8987 48.7782 53.7893 48.7355 52.616C48.7142 52.04 48.6928 51.432 48.6715 50.792C48.6715 50.152 48.6715 49.512 48.6715 48.872C48.6928 48.2107 48.7142 47.5813 48.7355 46.984C48.7568 45.8107 48.9168 44.7013 49.2155 43.656C49.5355 42.5893 50.0048 41.6613 50.6235 40.872C51.2635 40.0613 52.0955 39.432 53.1195 38.984C54.1435 38.5147 55.3808 38.28 56.8315 38.28C58.3035 38.28 59.5408 38.5147 60.5435 38.984C61.5675 39.432 62.3995 40.0613 63.0395 40.872C63.6795 41.6613 64.1488 42.5893 64.4475 43.656C64.7675 44.7013 64.9382 45.8107 64.9595 46.984C64.9808 47.5813 64.9915 48.2107 64.9915 48.872C65.0128 49.512 65.0128 50.152 64.9915 50.792C64.9915 51.432 64.9808 52.04 64.9595 52.616C64.9382 53.7893 64.7675 54.8987 64.4475 55.944C64.1488 56.9893 63.6795 57.9173 63.0395 58.728C62.4208 59.5387 61.5995 60.1787 60.5755 60.648C59.5728 61.096 58.3248 61.32 56.8315 61.32ZM56.8315 58.6C58.4955 58.6 59.7222 58.056 60.5115 56.968C61.3222 55.8587 61.7382 54.3547 61.7595 52.456C61.8022 51.8373 61.8235 51.24 61.8235 50.664C61.8235 50.0667 61.8235 49.48 61.8235 48.904C61.8235 48.3067 61.8022 47.72 61.7595 47.144C61.7382 45.288 61.3222 43.8053 60.5115 42.696C59.7222 41.5653 58.4955 41 56.8315 41C55.1888 41 53.9622 41.5653 53.1515 42.696C52.3622 43.8053 51.9462 45.288 51.9035 47.144C51.9035 47.72 51.8928 48.3067 51.8715 48.904C51.8715 49.48 51.8715 50.0667 51.8715 50.664C51.8928 51.24 51.9035 51.8373 51.9035 52.456C51.9462 54.3547 52.3728 55.8587 53.1835 56.968C53.9942 58.056 55.2102 58.6 56.8315 58.6Z" fill="#666666"/>
</svg>
