<svg width="100" height="100" viewBox="0 0 100 100" fill="none" xmlns="http://www.w3.org/2000/svg">
<rect width="100" height="100" fill="#262626"/>
<path d="M49.536 61.32C48.192 61.32 47.0187 61.16 46.016 60.84C45.0133 60.4987 44.1707 60.0507 43.488 59.496C42.8053 58.9413 42.2827 58.3333 41.92 57.672C41.5787 57.0107 41.3973 56.328 41.376 55.624C41.376 55.432 41.44 55.2827 41.568 55.176C41.696 55.0693 41.856 55.016 42.048 55.016H43.616C43.808 55.016 43.9787 55.0587 44.128 55.144C44.2773 55.2293 44.4053 55.4107 44.512 55.688C44.7253 56.456 45.088 57.0533 45.6 57.48C46.1333 57.9067 46.7413 58.2053 47.424 58.376C48.128 58.5253 48.832 58.6 49.536 58.6C51.008 58.6 52.2027 58.248 53.12 57.544C54.0373 56.84 54.496 55.8053 54.496 54.44C54.496 53.0533 54.08 52.0613 53.248 51.464C52.416 50.8667 51.264 50.568 49.792 50.568H46.752C46.5387 50.568 46.3573 50.504 46.208 50.376C46.08 50.248 46.016 50.0667 46.016 49.832V48.968C46.016 48.776 46.048 48.616 46.112 48.488C46.1973 48.3387 46.2827 48.2107 46.368 48.104L52.576 41.32H43.136C42.9227 41.32 42.7413 41.256 42.592 41.128C42.464 41 42.4 40.8187 42.4 40.584V39.368C42.4 39.1333 42.464 38.952 42.592 38.824C42.7413 38.6747 42.9227 38.6 43.136 38.6H55.904C56.1387 38.6 56.32 38.6747 56.448 38.824C56.5973 38.952 56.672 39.1333 56.672 39.368V40.52C56.672 40.6693 56.6293 40.808 56.544 40.936C56.48 41.0427 56.4053 41.1493 56.32 41.256L50.144 48.136L50.656 48.168C52.064 48.2107 53.2907 48.4667 54.336 48.936C55.4027 49.4053 56.224 50.1093 56.8 51.048C57.3973 51.9653 57.696 53.128 57.696 54.536C57.696 55.9653 57.344 57.192 56.64 58.216C55.936 59.2187 54.9653 59.9867 53.728 60.52C52.4907 61.0533 51.0933 61.32 49.536 61.32Z" fill="#666666"/>
</svg>
