<svg width="100" height="100" viewBox="0 0 100 100" fill="none" xmlns="http://www.w3.org/2000/svg">
<rect width="100" height="100" fill="#262626"/>
<path d="M47.176 61C46.984 61 46.824 60.936 46.696 60.808C46.5893 60.6587 46.536 60.488 46.536 60.296C46.536 60.1893 46.5467 60.104 46.568 60.04C46.6107 59.976 46.6427 59.9227 46.664 59.88L51.56 53.064C51.0267 53.192 50.4507 53.256 49.832 53.256C48.6373 53.2347 47.5707 53.0213 46.632 52.616C45.6933 52.2107 44.8933 51.6667 44.232 50.984C43.5707 50.28 43.0693 49.4907 42.728 48.616C42.3867 47.7413 42.216 46.824 42.216 45.864C42.216 44.9253 42.376 44.008 42.696 43.112C43.0373 42.216 43.5387 41.4053 44.2 40.68C44.8827 39.9547 45.7253 39.3787 46.728 38.952C47.7307 38.504 48.9147 38.28 50.28 38.28C51.624 38.28 52.7973 38.4933 53.8 38.92C54.824 39.3253 55.6773 39.8907 56.36 40.616C57.064 41.32 57.576 42.12 57.896 43.016C58.2373 43.912 58.408 44.84 58.408 45.8C58.408 46.6747 58.28 47.4747 58.024 48.2C57.768 48.9253 57.4587 49.576 57.096 50.152C56.7547 50.728 56.4133 51.2613 56.072 51.752L49.928 60.36C49.8427 60.4667 49.7253 60.6053 49.576 60.776C49.4267 60.9253 49.2027 61 48.904 61H47.176ZM50.28 50.664C51.176 50.664 51.9973 50.472 52.744 50.088C53.512 49.6827 54.12 49.128 54.568 48.424C55.016 47.6987 55.24 46.8347 55.24 45.832C55.24 44.8293 55.016 43.976 54.568 43.272C54.12 42.5467 53.512 41.992 52.744 41.608C51.9973 41.2027 51.176 41 50.28 41C49.4053 41 48.5947 41.2027 47.848 41.608C47.1013 41.992 46.504 42.5467 46.056 43.272C45.608 43.976 45.384 44.8293 45.384 45.832C45.384 46.8347 45.608 47.6987 46.056 48.424C46.504 49.128 47.1013 49.6827 47.848 50.088C48.5947 50.472 49.4053 50.664 50.28 50.664Z" fill="#666666"/>
</svg>
