<svg width="100" height="100" viewBox="0 0 100 100" fill="none" xmlns="http://www.w3.org/2000/svg">
<rect width="100" height="100" fill="#262626"/>
<path d="M43.304 61C43.0907 61 42.9093 60.936 42.76 60.808C42.632 60.6587 42.568 60.4773 42.568 60.264V59.24C42.568 59.048 42.6213 58.8347 42.728 58.6C42.8347 58.3653 43.048 58.1093 43.368 57.832L50.152 51.048C51.24 50.1307 52.0933 49.352 52.712 48.712C53.352 48.0507 53.8 47.4213 54.056 46.824C54.3333 46.2267 54.472 45.608 54.472 44.968C54.472 43.752 54.1307 42.792 53.448 42.088C52.7653 41.3627 51.752 41 50.408 41C49.5547 41 48.8187 41.1813 48.2 41.544C47.5813 41.8853 47.0907 42.3653 46.728 42.984C46.3867 43.5813 46.1627 44.264 46.056 45.032C46.0133 45.3093 45.896 45.5013 45.704 45.608C45.5333 45.7147 45.3733 45.768 45.224 45.768H43.56C43.368 45.768 43.208 45.7147 43.08 45.608C42.952 45.48 42.888 45.3307 42.888 45.16C42.9093 44.3493 43.08 43.5387 43.4 42.728C43.72 41.896 44.1893 41.1493 44.808 40.488C45.448 39.8267 46.2267 39.2933 47.144 38.888C48.0827 38.4613 49.1707 38.248 50.408 38.248C52.0933 38.248 53.4693 38.5573 54.536 39.176C55.624 39.7733 56.424 40.5733 56.936 41.576C57.448 42.5787 57.704 43.6773 57.704 44.872C57.704 45.8107 57.544 46.6747 57.224 47.464C56.904 48.232 56.4347 48.9893 55.816 49.736C55.2187 50.4613 54.472 51.208 53.576 51.976L47.432 58.216H57.416C57.6507 58.216 57.832 58.28 57.96 58.408C58.1093 58.536 58.184 58.7173 58.184 58.952V60.264C58.184 60.4773 58.1093 60.6587 57.96 60.808C57.832 60.936 57.6507 61 57.416 61H43.304Z" fill="#666666"/>
</svg>
