<svg width="100" height="100" viewBox="0 0 100 100" fill="none" xmlns="http://www.w3.org/2000/svg">
<rect width="100" height="100" fill="#262626"/>
<path d="M50.344 61.32C48.6587 61.32 47.2293 61.032 46.056 60.456C44.904 59.8587 44.0187 59.0907 43.4 58.152C42.8027 57.2133 42.4827 56.2213 42.44 55.176C42.4187 54.984 42.472 54.8347 42.6 54.728C42.728 54.6213 42.888 54.568 43.08 54.568H44.808C45 54.568 45.1707 54.6107 45.32 54.696C45.4693 54.7813 45.5867 54.9627 45.672 55.24C45.8853 56.0293 46.2267 56.68 46.696 57.192C47.1867 57.6827 47.7413 58.0453 48.36 58.28C49 58.4933 49.6613 58.6 50.344 58.6C51.2613 58.6 52.0933 58.4187 52.84 58.056C53.608 57.672 54.216 57.1173 54.664 56.392C55.112 55.6453 55.336 54.7493 55.336 53.704C55.336 52.744 55.112 51.9227 54.664 51.24C54.2373 50.536 53.64 50.0027 52.872 49.64C52.1253 49.256 51.2827 49.064 50.344 49.064C49.64 49.064 49.064 49.1493 48.616 49.32C48.168 49.4907 47.784 49.6933 47.464 49.928C47.1653 50.1627 46.888 50.3653 46.632 50.536C46.3973 50.7067 46.1307 50.792 45.832 50.792H44.168C43.976 50.792 43.8053 50.728 43.656 50.6C43.5067 50.4507 43.4427 50.28 43.464 50.088L44.488 39.4C44.5093 39.144 44.584 38.952 44.712 38.824C44.8613 38.6747 45.0533 38.6 45.288 38.6H56.456C56.6693 38.6 56.84 38.6747 56.968 38.824C57.1173 38.952 57.192 39.1227 57.192 39.336V40.584C57.192 40.8187 57.1173 41 56.968 41.128C56.84 41.256 56.6693 41.32 56.456 41.32H47.24L46.632 47.624C46.9307 47.432 47.4107 47.208 48.072 46.952C48.7333 46.6747 49.64 46.536 50.792 46.536C51.8373 46.536 52.8187 46.696 53.736 47.016C54.6747 47.336 55.5067 47.8053 56.232 48.424C56.9573 49.0427 57.5227 49.8 57.928 50.696C58.3333 51.5707 58.536 52.584 58.536 53.736C58.536 55.3573 58.1733 56.7333 57.448 57.864C56.744 58.9947 55.7733 59.8587 54.536 60.456C53.32 61.032 51.9227 61.32 50.344 61.32Z" fill="#666666"/>
</svg>
