<svg width="100" height="100" viewBox="0 0 100 100" fill="none" xmlns="http://www.w3.org/2000/svg">
<rect width="100" height="100" fill="#262626"/>
<path d="M46.768 61C46.576 61 46.416 60.936 46.288 60.808C46.1813 60.6587 46.128 60.488 46.128 60.296C46.128 60.232 46.1493 60.136 46.192 60.008L54.16 41.384H43.664C43.4507 41.384 43.2693 41.32 43.12 41.192C42.992 41.0427 42.928 40.8613 42.928 40.648V39.368C42.928 39.1333 42.992 38.952 43.12 38.824C43.2693 38.6747 43.4507 38.6 43.664 38.6H56.784C57.0187 38.6 57.2 38.6747 57.328 38.824C57.4773 38.952 57.552 39.1333 57.552 39.368V40.552C57.552 40.8293 57.5307 41.0533 57.488 41.224C57.4453 41.3947 57.3813 41.5867 57.296 41.8L49.392 60.2C49.328 60.3707 49.2213 60.552 49.072 60.744C48.944 60.9147 48.752 61 48.496 61H46.768Z" fill="#666666"/>
</svg>
