<svg width="80" height="24" viewBox="0 0 80 24" fill="none" xmlns="http://www.w3.org/2000/svg">
<g clip-path="url(#clip0_784_8)">
<path d="M22 6H2" stroke="#666666" stroke-width="3" stroke-linecap="round" stroke-linejoin="round"/>
<path d="M22 18H2" stroke="#666666" stroke-width="3" stroke-linecap="round" stroke-linejoin="round"/>
<path d="M6 2V22" stroke="#666666" stroke-width="3" stroke-linecap="round" stroke-linejoin="round"/>
<path d="M18 2V22" stroke="#666666" stroke-width="3" stroke-linecap="round" stroke-linejoin="round"/>
</g>
<path d="M31.71 18.5C31.578 18.5 31.47 18.458 31.386 18.374C31.302 18.29 31.26 18.182 31.26 18.05V6.35C31.26 6.218 31.302 6.11 31.386 6.026C31.47 5.942 31.578 5.9 31.71 5.9H34.086C34.206 5.9 34.308 5.942 34.392 6.026C34.488 6.11 34.536 6.218 34.536 6.35V15.782H39.972C40.104 15.782 40.212 15.83 40.296 15.926C40.392 16.01 40.44 16.118 40.44 16.25V18.05C40.44 18.182 40.392 18.29 40.296 18.374C40.212 18.458 40.104 18.5 39.972 18.5H31.71ZM47.0076 18.68C45.9036 18.68 44.9436 18.5 44.1276 18.14C43.3116 17.78 42.6756 17.24 42.2196 16.52C41.7636 15.788 41.5116 14.876 41.4636 13.784C41.4516 13.268 41.4456 12.752 41.4456 12.236C41.4456 11.72 41.4516 11.198 41.4636 10.67C41.5116 9.59 41.7636 8.684 42.2196 7.952C42.6876 7.208 43.3296 6.65 44.1456 6.278C44.9616 5.906 45.9156 5.72 47.0076 5.72C48.0876 5.72 49.0356 5.906 49.8516 6.278C50.6796 6.65 51.3276 7.208 51.7956 7.952C52.2636 8.684 52.5156 9.59 52.5516 10.67C52.5756 11.198 52.5876 11.72 52.5876 12.236C52.5876 12.752 52.5756 13.268 52.5516 13.784C52.5036 14.876 52.2516 15.788 51.7956 16.52C51.3396 17.24 50.7036 17.78 49.8876 18.14C49.0716 18.5 48.1116 18.68 47.0076 18.68ZM47.0076 16.088C47.6436 16.088 48.1596 15.896 48.5556 15.512C48.9636 15.128 49.1796 14.516 49.2036 13.676C49.2276 13.148 49.2396 12.65 49.2396 12.182C49.2396 11.714 49.2276 11.228 49.2036 10.724C49.1796 10.16 49.0716 9.704 48.8796 9.356C48.6996 8.996 48.4476 8.732 48.1236 8.564C47.7996 8.396 47.4276 8.312 47.0076 8.312C46.5996 8.312 46.2336 8.396 45.9096 8.564C45.5856 8.732 45.3276 8.996 45.1356 9.356C44.9436 9.704 44.8356 10.16 44.8116 10.724C44.7996 11.228 44.7936 11.714 44.7936 12.182C44.7936 12.65 44.7996 13.148 44.8116 13.676C44.8476 14.516 45.0636 15.128 45.4596 15.512C45.8556 15.896 46.3716 16.088 47.0076 16.088ZM59.8761 18.68C58.7361 18.68 57.7521 18.494 56.9241 18.122C56.1081 17.738 55.4721 17.186 55.0161 16.466C54.5721 15.734 54.3261 14.846 54.2781 13.802C54.2661 13.286 54.2601 12.74 54.2601 12.164C54.2601 11.576 54.2661 11.018 54.2781 10.49C54.3261 9.47 54.5781 8.606 55.0341 7.898C55.4901 7.19 56.1321 6.65 56.9601 6.278C57.7881 5.906 58.7601 5.72 59.8761 5.72C60.7761 5.72 61.5741 5.834 62.2701 6.062C62.9661 6.278 63.5481 6.572 64.0161 6.944C64.4961 7.316 64.8561 7.724 65.0961 8.168C65.3481 8.612 65.4801 9.05 65.4921 9.482C65.5041 9.59 65.4681 9.68 65.3841 9.752C65.3121 9.824 65.2221 9.86 65.1141 9.86H62.4861C62.3541 9.86 62.2521 9.842 62.1801 9.806C62.1201 9.758 62.0661 9.692 62.0181 9.608C61.9341 9.428 61.8081 9.242 61.6401 9.05C61.4841 8.846 61.2621 8.672 60.9741 8.528C60.6981 8.384 60.3321 8.312 59.8761 8.312C59.1921 8.312 58.6521 8.492 58.2561 8.852C57.8721 9.212 57.6621 9.788 57.6261 10.58C57.5901 11.612 57.5901 12.656 57.6261 13.712C57.6621 14.552 57.8841 15.158 58.2921 15.53C58.7001 15.902 59.2401 16.088 59.9121 16.088C60.3681 16.088 60.7701 16.01 61.1181 15.854C61.4781 15.698 61.7601 15.458 61.9641 15.134C62.1681 14.798 62.2701 14.372 62.2701 13.856V13.514H60.5781C60.4461 13.514 60.3321 13.472 60.2361 13.388C60.1521 13.292 60.1101 13.178 60.1101 13.046V11.714C60.1101 11.582 60.1521 11.474 60.2361 11.39C60.3321 11.294 60.4461 11.246 60.5781 11.246H65.1141C65.2461 11.246 65.3541 11.294 65.4381 11.39C65.5221 11.474 65.5641 11.582 65.5641 11.714V13.766C65.5641 14.798 65.3301 15.68 64.8621 16.412C64.3941 17.144 63.7281 17.708 62.8641 18.104C62.0121 18.488 61.0161 18.68 59.8761 18.68ZM72.7771 18.68C71.6731 18.68 70.7131 18.5 69.8971 18.14C69.0811 17.78 68.4451 17.24 67.9891 16.52C67.5331 15.788 67.2811 14.876 67.2331 13.784C67.2211 13.268 67.2151 12.752 67.2151 12.236C67.2151 11.72 67.2211 11.198 67.2331 10.67C67.2811 9.59 67.5331 8.684 67.9891 7.952C68.4571 7.208 69.0991 6.65 69.9151 6.278C70.7311 5.906 71.6851 5.72 72.7771 5.72C73.8571 5.72 74.8051 5.906 75.6211 6.278C76.4491 6.65 77.0971 7.208 77.5651 7.952C78.0331 8.684 78.2851 9.59 78.3211 10.67C78.3451 11.198 78.3571 11.72 78.3571 12.236C78.3571 12.752 78.3451 13.268 78.3211 13.784C78.2731 14.876 78.0211 15.788 77.5651 16.52C77.1091 17.24 76.4731 17.78 75.6571 18.14C74.8411 18.5 73.8811 18.68 72.7771 18.68ZM72.7771 16.088C73.4131 16.088 73.9291 15.896 74.3251 15.512C74.7331 15.128 74.9491 14.516 74.9731 13.676C74.9971 13.148 75.0091 12.65 75.0091 12.182C75.0091 11.714 74.9971 11.228 74.9731 10.724C74.9491 10.16 74.8411 9.704 74.6491 9.356C74.4691 8.996 74.2171 8.732 73.8931 8.564C73.5691 8.396 73.1971 8.312 72.7771 8.312C72.3691 8.312 72.0031 8.396 71.6791 8.564C71.3551 8.732 71.0971 8.996 70.9051 9.356C70.7131 9.704 70.6051 10.16 70.5811 10.724C70.5691 11.228 70.5631 11.714 70.5631 12.182C70.5631 12.65 70.5691 13.148 70.5811 13.676C70.6171 14.516 70.8331 15.128 71.2291 15.512C71.6251 15.896 72.1411 16.088 72.7771 16.088Z" fill="#666666"/>
<defs>
<clipPath id="clip0_784_8">
<rect width="24" height="24" fill="white"/>
</clipPath>
</defs>
</svg>
